<svg
  xmlns="http://www.w3.org/2000/svg"
  viewBox="0 0 1200 900"
  role="img"
  aria-label="Illustration of a modern home exterior"
>
  <defs>
    <linearGradient id="sky" x1="0" y1="0" x2="0" y2="1">
      <stop offset="0" stop-color="#c7e7ff" />
      <stop offset="1" stop-color="#ffffff" />
    </linearGradient>
    <linearGradient id="roof" x1="0" y1="0" x2="1" y2="1">
      <stop offset="0" stop-color="#0f172a" />
      <stop offset="1" stop-color="#334155" />
    </linearGradient>
    <linearGradient id="wall" x1="0" y1="0" x2="0" y2="1">
      <stop offset="0" stop-color="#ffffff" />
      <stop offset="1" stop-color="#e2e8f0" />
    </linearGradient>
    <linearGradient id="glass" x1="0" y1="0" x2="1" y2="1">
      <stop offset="0" stop-color="#e0f2fe" />
      <stop offset="1" stop-color="#93c5fd" stop-opacity="0.65" />
    </linearGradient>
    <linearGradient id="lawn" x1="0" y1="0" x2="1" y2="1">
      <stop offset="0" stop-color="#dcfce7" />
      <stop offset="1" stop-color="#a7f3d0" />
    </linearGradient>
    <filter
      id="shadow"
      x="-20%"
      y="-20%"
      width="140%"
      height="140%"
      color-interpolation-filters="sRGB"
    >
      <feDropShadow
        dx="0"
        dy="22"
        stdDeviation="18"
        flood-color="#0f172a"
        flood-opacity="0.24"
      />
    </filter>
    <filter
      id="softGlow"
      x="-30%"
      y="-30%"
      width="160%"
      height="160%"
      color-interpolation-filters="sRGB"
    >
      <feGaussianBlur stdDeviation="16" result="blur" />
      <feColorMatrix
        in="blur"
        type="matrix"
        values="1 0 0 0 0  0 1 0 0 0  0 0 1 0 0  0 0 0 0.45 0"
      />
      <feMerge>
        <feMergeNode />
        <feMergeNode in="SourceGraphic" />
      </feMerge>
    </filter>
  </defs>

  <rect width="1200" height="900" fill="url(#sky)" />
  <circle cx="965" cy="170" r="82" fill="#fde68a" opacity="0.9" />
  <circle cx="965" cy="170" r="140" fill="#fde68a" opacity="0.35" />

  <path
    d="M0 670 C 190 595, 350 640, 560 610 C 770 580, 960 600, 1200 550 L 1200 900 L 0 900 Z"
    fill="url(#lawn)"
    opacity="0.65"
  />

  <g filter="url(#shadow)">
    <path d="M240 430 L 600 250 L 960 430 Z" fill="url(#roof)" />
    <rect x="240" y="410" width="720" height="360" rx="36" fill="url(#wall)" />
    <rect
      x="240"
      y="560"
      width="720"
      height="42"
      fill="#0ea5e9"
      opacity="0.16"
    />

    <rect
      x="306"
      y="486"
      width="270"
      height="210"
      rx="20"
      fill="url(#glass)"
      stroke="#94a3b8"
      stroke-width="10"
    />
    <path
      d="M441 486 V 696"
      stroke="#94a3b8"
      stroke-width="10"
      opacity="0.75"
    />

    <rect
      x="624"
      y="486"
      width="270"
      height="210"
      rx="20"
      fill="url(#glass)"
      stroke="#94a3b8"
      stroke-width="10"
    />
    <path
      d="M759 486 V 696"
      stroke="#94a3b8"
      stroke-width="10"
      opacity="0.75"
    />

    <rect
      x="532"
      y="540"
      width="136"
      height="230"
      rx="22"
      fill="#fde68a"
      stroke="#b45309"
      stroke-width="10"
    />
    <circle cx="646" cy="660" r="10" fill="#92400e" opacity="0.8" />
  </g>

  <path
    d="M530 770 C 520 840, 540 875, 600 900 H 760 C 700 878, 650 845, 620 770 Z"
    fill="#cbd5e1"
    opacity="0.7"
  />

  <g filter="url(#softGlow)" opacity="0.95">
    <circle cx="195" cy="600" r="78" fill="#34d399" />
    <circle cx="165" cy="640" r="60" fill="#22c55e" />
    <circle cx="235" cy="650" r="58" fill="#16a34a" />
    <rect x="186" y="680" width="22" height="130" rx="10" fill="#92400e" />
  </g>

  <rect width="1200" height="900" fill="#0f172a" opacity="0.05" />
</svg>

