<svg xmlns="http://www.w3.org/2000/svg" viewBox="0 0 64 64" fill="none">
  <circle cx="32" cy="32" r="32" fill="#F5F5F5"/>
  <ellipse cx="20" cy="12" rx="6" ry="18" fill="#F5F5F5"/>
  <ellipse cx="44" cy="12" rx="6" ry="18" fill="#F5F5F5"/>
  <ellipse cx="20" cy="12" rx="3" ry="14" fill="#FFB6C1"/>
  <ellipse cx="44" cy="12" rx="3" ry="14" fill="#FFB6C1"/>
  <ellipse cx="32" cy="42" rx="20" ry="18" fill="#F5F5F5"/>
  <circle cx="22" cy="38" r="4" fill="#FF69B4"/>
  <circle cx="42" cy="38" r="4" fill="#FF69B4"/>
  <circle cx="24" cy="32" r="3" fill="#2D1B0E"/>
  <circle cx="40" cy="32" r="3" fill="#2D1B0E"/>
  <circle cx="25" cy="31" r="1" fill="white"/>
  <circle cx="41" cy="31" r="1" fill="white"/>
  <ellipse cx="32" cy="46" rx="4" ry="3" fill="#FFB6C1"/>
  <path d="M28 50 L32 48 L36 50" stroke="#2D1B0E" stroke-width="1.5" stroke-linecap="round" fill="none"/>
  <path d="M32 48 L32 52" stroke="#2D1B0E" stroke-width="1.5" stroke-linecap="round"/>
  <line x1="14" y1="44" x2="22" y2="44" stroke="#C0C0C0" stroke-width="1" stroke-linecap="round"/>
  <line x1="14" y1="48" x2="22" y2="46" stroke="#C0C0C0" stroke-width="1" stroke-linecap="round"/>
  <line x1="42" y1="44" x2="50" y2="44" stroke="#C0C0C0" stroke-width="1" stroke-linecap="round"/>
  <line x1="42" y1="46" x2="50" y2="48" stroke="#C0C0C0" stroke-width="1" stroke-linecap="round"/>
</svg>
