<svg
  width="400"
  height="350"
  viewBox="0 0 400 350"
  fill="none"
  xmlns="http://www.w3.org/2000/svg"
>
  <defs>
    <linearGradient
      id="bg"
      x1="0"
      y1="0"
      x2="400"
      y2="350"
      gradientUnits="userSpaceOnUse"
    >
      <stop offset="0" stop-color="#0c0a09" />
      <stop offset="1" stop-color="#1c1917" />
    </linearGradient>

    <radialGradient
      id="glow"
      cx="0"
      cy="0"
      r="1"
      gradientUnits="userSpaceOnUse"
      gradientTransform="translate(200 30) rotate(90) scale(180 240)"
    >
      <stop offset="0" stop-color="#fbbf24" stop-opacity="0.18" />
      <stop offset="0.55" stop-color="#fbbf24" stop-opacity="0.06" />
      <stop offset="1" stop-color="#fbbf24" stop-opacity="0" />
    </radialGradient>

    <radialGradient
      id="vignette"
      cx="0"
      cy="0"
      r="1"
      gradientUnits="userSpaceOnUse"
      gradientTransform="translate(200 175) rotate(90) scale(220 280)"
    >
      <stop offset="0" stop-color="#000000" stop-opacity="0" />
      <stop offset="1" stop-color="#000000" stop-opacity="0.55" />
    </radialGradient>

    <pattern id="grid" width="36" height="36" patternUnits="userSpaceOnUse">
      <path
        d="M36 0H0V36"
        fill="none"
        stroke="#ffffff"
        stroke-opacity="0.08"
        stroke-width="1"
      />
    </pattern>
  </defs>

  <rect width="400" height="350" fill="url(#bg)" />
  <rect width="400" height="350" fill="url(#glow)" />
  <rect width="400" height="350" fill="url(#grid)" opacity="0.35" />
  <rect width="400" height="350" fill="url(#vignette)" />

  <g opacity="0.9">
    <path
      d="M95 176L200 92L305 176"
      stroke="#f5f5f4"
      stroke-opacity="0.75"
      stroke-width="4"
      stroke-linecap="round"
      stroke-linejoin="round"
    />
    <path
      d="M125 168V274H275V168"
      stroke="#f5f5f4"
      stroke-opacity="0.75"
      stroke-width="4"
      stroke-linecap="round"
      stroke-linejoin="round"
    />
    <path
      d="M187 274V226C187 219 193 214 200 214C207 214 213 219 213 226V274"
      stroke="#f5f5f4"
      stroke-opacity="0.7"
      stroke-width="4"
      stroke-linecap="round"
      stroke-linejoin="round"
    />
    <path
      d="M152 198H188V226H152V198Z"
      stroke="#f5f5f4"
      stroke-opacity="0.5"
      stroke-width="3"
      stroke-linejoin="round"
    />
    <path
      d="M212 198H248V226H212V198Z"
      stroke="#f5f5f4"
      stroke-opacity="0.5"
      stroke-width="3"
      stroke-linejoin="round"
    />
  </g>
</svg>
