<svg width="400" height="350" viewBox="0 0 400 350" fill="none" xmlns="http://www.w3.org/2000/svg">
  <!-- Background gradient -->
  <defs>
    <linearGradient id="bg2" x1="0%" y1="0%" x2="100%" y2="100%">
      <stop offset="0%" style="stop-color:#fff3e0;stop-opacity:1" />
      <stop offset="100%" style="stop-color:#ffcc02;stop-opacity:1" />
    </linearGradient>
    <linearGradient id="house2" x1="0%" y1="0%" x2="0%" y2="100%">
      <stop offset="0%" style="stop-color:#fff;stop-opacity:1" />
      <stop offset="100%" style="stop-color:#f0f0f0;stop-opacity:1" />
    </linearGradient>
    <linearGradient id="roof2" x1="0%" y1="0%" x2="0%" y2="100%">
      <stop offset="0%" style="stop-color:#d32f2f;stop-opacity:1" />
      <stop offset="100%" style="stop-color:#b71c1c;stop-opacity:1" />
    </linearGradient>
  </defs>
  
  <!-- Sky background -->
  <rect width="400" height="350" fill="url(#bg2)"/>
  
  <!-- Ground -->
  <rect x="0" y="280" width="400" height="70" fill="#66bb6a"/>
  
  <!-- House body - Modern style -->
  <rect x="100" y="160" width="200" height="140" fill="url(#house2)" stroke="#e0e0e0" stroke-width="2"/>
  
  <!-- Roof - Flat modern -->
  <rect x="90" y="150" width="220" height="20" fill="url(#roof2)" stroke="#b71c1c" stroke-width="1"/>
  
  <!-- Garage -->
  <rect x="50" y="200" width="80" height="100" fill="#f5f5f5" stroke="#bdbdbd" stroke-width="2"/>
  <rect x="60" y="230" width="60" height="70" fill="#424242" stroke="#212121" stroke-width="1"/>
  
  <!-- Main door -->
  <rect x="160" y="240" width="35" height="60" fill="#8d6e63" stroke="#5d4037" stroke-width="1"/>
  <rect x="165" y="245" width="8" height="15" fill="#81d4fa" stroke="#0277bd" stroke-width="1"/>
  <circle cx="185" cy="270" r="2" fill="#ffeb3b"/>
  
  <!-- Large windows -->
  <rect x="210" y="180" width="40" height="40" fill="#e1f5fe" stroke="#0277bd" stroke-width="2"/>
  <rect x="260" y="180" width="40" height="40" fill="#e1f5fe" stroke="#0277bd" stroke-width="2"/>
  <line x1="230" y1="180" x2="230" y2="220" stroke="#0277bd" stroke-width="1"/>
  <line x1="210" y1="200" x2="250" y2="200" stroke="#0277bd" stroke-width="1"/>
  <line x1="280" y1="180" x2="280" y2="220" stroke="#0277bd" stroke-width="1"/>
  <line x1="260" y1="200" x2="300" y2="200" stroke="#0277bd" stroke-width="1"/>
  
  <!-- Small upper windows -->
  <rect x="120" y="180" width="25" height="20" fill="#e1f5fe" stroke="#0277bd" stroke-width="1"/>
  
  <!-- Garden elements -->
  <rect x="320" y="260" width="60" height="40" fill="#4caf50" rx="5"/>
  <circle cx="335" cy="250" r="8" fill="#f44336"/>
  <circle cx="350" cy="245" r="10" fill="#ff9800"/>
  <circle cx="365" cy="250" r="8" fill="#e91e63"/>
  
  <!-- Driveway -->
  <rect x="50" y="300" width="80" height="50" fill="#9e9e9e"/>
  
  <!-- Sun -->
  <circle cx="350" cy="50" r="20" fill="#ffeb3b" opacity="0.9"/>
  <line x1="330" y1="50" x2="320" y2="50" stroke="#ffeb3b" stroke-width="2"/>
  <line x1="370" y1="50" x2="380" y2="50" stroke="#ffeb3b" stroke-width="2"/>
  <line x1="350" y1="30" x2="350" y2="20" stroke="#ffeb3b" stroke-width="2"/>
  <line x1="350" y1="70" x2="350" y2="80" stroke="#ffeb3b" stroke-width="2"/>
</svg>