<svg width="400" height="350" viewBox="0 0 400 350" fill="none" xmlns="http://www.w3.org/2000/svg">
  <!-- Background gradient -->
  <defs>
    <linearGradient id="bg3" x1="0%" y1="0%" x2="100%" y2="100%">
      <stop offset="0%" style="stop-color:#fce4ec;stop-opacity:1" />
      <stop offset="100%" style="stop-color:#f8bbd9;stop-opacity:1" />
    </linearGradient>
    <linearGradient id="house3" x1="0%" y1="0%" x2="0%" y2="100%">
      <stop offset="0%" style="stop-color:#fff8e1;stop-opacity:1" />
      <stop offset="100%" style="stop-color:#f0f4c3;stop-opacity:1" />
    </linearGradient>
    <linearGradient id="roof3" x1="0%" y1="0%" x2="0%" y2="100%">
      <stop offset="0%" style="stop-color:#2e7d32;stop-opacity:1" />
      <stop offset="100%" style="stop-color:#1b5e20;stop-opacity:1" />
    </linearGradient>
  </defs>
  
  <!-- Sky background -->
  <rect width="400" height="350" fill="url(#bg3)"/>
  
  <!-- Ground -->
  <rect x="0" y="270" width="400" height="80" fill="#81c784"/>
  
  <!-- Multi-level house -->
  <!-- Lower level -->
  <rect x="80" y="200" width="120" height="80" fill="url(#house3)" stroke="#c5e1a5" stroke-width="2"/>
  <!-- Upper level -->
  <rect x="140" y="160" width="120" height="80" fill="url(#house3)" stroke="#c5e1a5" stroke-width="2"/>
  
  <!-- Roofs -->
  <polygon points="70,200 80,180 200,180 210,200" fill="url(#roof3)" stroke="#1b5e20" stroke-width="2"/>
  <polygon points="120,160 140,140 260,140 280,160" fill="url(#roof3)" stroke="#1b5e20" stroke-width="2"/>
  
  <!-- Chimney -->
  <rect x="240" y="120" width="15" height="30" fill="#795548" stroke="#5d4037" stroke-width="1"/>
  <rect x="235" y="115" width="25" height="8" fill="#8d6e63"/>
  
  <!-- Main entrance -->
  <rect x="160" y="220" width="40" height="60" fill="#6d4c41" stroke="#5d4037" stroke-width="2"/>
  <circle cx="190" cy="250" r="3" fill="#ffeb3b"/>
  
  <!-- Windows -->
  <!-- Ground floor -->
  <rect x="100" y="220" width="30" height="30" fill="#e3f2fd" stroke="#1976d2" stroke-width="2"/>
  <rect x="220" y="220" width="30" height="30" fill="#e3f2fd" stroke="#1976d2" stroke-width="2"/>
  
  <!-- Upper floor -->
  <rect x="160" y="180" width="30" height="25" fill="#e3f2fd" stroke="#1976d2" stroke-width="2"/>
  <rect x="210" y="180" width="30" height="25" fill="#e3f2fd" stroke="#1976d2" stroke-width="2"/>
  
  <!-- Window details -->
  <line x1="115" y1="220" x2="115" y2="250" stroke="#1976d2" stroke-width="1"/>
  <line x1="100" y1="235" x2="130" y2="235" stroke="#1976d2" stroke-width="1"/>
  <line x1="235" y1="220" x2="235" y2="250" stroke="#1976d2" stroke-width="1"/>
  <line x1="220" y1="235" x2="250" y2="235" stroke="#1976d2" stroke-width="1"/>
  
  <!-- Landscaping -->
  <!-- Flower bed -->
  <ellipse cx="320" cy="290" rx="40" ry="15" fill="#4caf50"/>
  <circle cx="310" cy="285" r="3" fill="#e91e63"/>
  <circle cx="320" cy="282" r="4" fill="#ff5722"/>
  <circle cx="330" cy="285" r="3" fill="#9c27b0"/>
  <circle cx="325" cy="290" r="3" fill="#ffeb3b"/>
  
  <!-- Tree -->
  <ellipse cx="50" cy="220" rx="20" ry="25" fill="#388e3c"/>
  <rect x="47" y="245" width="6" height="25" fill="#8d6e63"/>
  
  <!-- Pathway -->
  <ellipse cx="200" cy="310" rx="80" ry="20" fill="#bcaaa4"/>
  
  <!-- Decorative bushes -->
  <circle cx="280" cy="250" r="12" fill="#4caf50"/>
  <circle cx="120" cy="260" r="10" fill="#4caf50"/>
  
  <!-- Birds -->
  <path d="M 320 80 Q 325 75 330 80" stroke="#424242" stroke-width="2" fill="none"/>
  <path d="M 335 75 Q 340 70 345 75" stroke="#424242" stroke-width="2" fill="none"/>
</svg>