<svg
  width="400"
  height="350"
  viewBox="0 0 400 350"
  fill="none"
  xmlns="http://www.w3.org/2000/svg"
>
  <defs>
    <linearGradient
      id="bg"
      x1="0"
      y1="0"
      x2="400"
      y2="350"
      gradientUnits="userSpaceOnUse"
    >
      <stop offset="0" stop-color="#0c0a09" />
      <stop offset="1" stop-color="#1c1917" />
    </linearGradient>

    <radialGradient
      id="glow"
      cx="0"
      cy="0"
      r="1"
      gradientUnits="userSpaceOnUse"
      gradientTransform="translate(310 85) rotate(90) scale(190 260)"
    >
      <stop offset="0" stop-color="#a78bfa" stop-opacity="0.16" />
      <stop offset="0.6" stop-color="#a78bfa" stop-opacity="0.05" />
      <stop offset="1" stop-color="#a78bfa" stop-opacity="0" />
    </radialGradient>

    <radialGradient
      id="vignette"
      cx="0"
      cy="0"
      r="1"
      gradientUnits="userSpaceOnUse"
      gradientTransform="translate(200 175) rotate(90) scale(220 280)"
    >
      <stop offset="0" stop-color="#000000" stop-opacity="0" />
      <stop offset="1" stop-color="#000000" stop-opacity="0.55" />
    </radialGradient>

    <pattern id="grid" width="36" height="36" patternUnits="userSpaceOnUse">
      <path
        d="M36 0H0V36"
        fill="none"
        stroke="#ffffff"
        stroke-opacity="0.08"
        stroke-width="1"
      />
    </pattern>
  </defs>

  <rect width="400" height="350" fill="url(#bg)" />
  <rect width="400" height="350" fill="url(#glow)" />
  <rect width="400" height="350" fill="url(#grid)" opacity="0.3" />
  <rect width="400" height="350" fill="url(#vignette)" />

  <g opacity="0.9">
    <path
      d="M92 182L200 94L308 182"
      stroke="#f5f5f4"
      stroke-opacity="0.74"
      stroke-width="4"
      stroke-linecap="round"
      stroke-linejoin="round"
    />
    <path
      d="M124 174V274H276V174"
      stroke="#f5f5f4"
      stroke-opacity="0.74"
      stroke-width="4"
      stroke-linecap="round"
      stroke-linejoin="round"
    />
    <path
      d="M189 274V233C189 225 195 219 203 219H208C215 219 221 225 221 233V274"
      stroke="#f5f5f4"
      stroke-opacity="0.68"
      stroke-width="4"
      stroke-linecap="round"
      stroke-linejoin="round"
    />
    <path
      d="M154 202H188V230H154V202Z"
      stroke="#f5f5f4"
      stroke-opacity="0.45"
      stroke-width="3"
      stroke-linejoin="round"
    />
    <path
      d="M212 202H246V230H212V202Z"
      stroke="#f5f5f4"
      stroke-opacity="0.45"
      stroke-width="3"
      stroke-linejoin="round"
    />
  </g>
</svg>
