<svg
  width="400"
  height="350"
  viewBox="0 0 400 350"
  fill="none"
  xmlns="http://www.w3.org/2000/svg"
>
  <defs>
    <linearGradient
      id="bg"
      x1="0"
      y1="0"
      x2="400"
      y2="350"
      gradientUnits="userSpaceOnUse"
    >
      <stop offset="0" stop-color="#0c0a09" />
      <stop offset="1" stop-color="#292524" />
    </linearGradient>

    <radialGradient
      id="glow"
      cx="0"
      cy="0"
      r="1"
      gradientUnits="userSpaceOnUse"
      gradientTransform="translate(90 260) rotate(90) scale(190 250)"
    >
      <stop offset="0" stop-color="#38bdf8" stop-opacity="0.16" />
      <stop offset="0.6" stop-color="#38bdf8" stop-opacity="0.05" />
      <stop offset="1" stop-color="#38bdf8" stop-opacity="0" />
    </radialGradient>

    <radialGradient
      id="vignette"
      cx="0"
      cy="0"
      r="1"
      gradientUnits="userSpaceOnUse"
      gradientTransform="translate(200 175) rotate(90) scale(220 280)"
    >
      <stop offset="0" stop-color="#000000" stop-opacity="0" />
      <stop offset="1" stop-color="#000000" stop-opacity="0.55" />
    </radialGradient>

    <pattern id="grid" width="36" height="36" patternUnits="userSpaceOnUse">
      <path
        d="M36 0H0V36"
        fill="none"
        stroke="#ffffff"
        stroke-opacity="0.08"
        stroke-width="1"
      />
    </pattern>
  </defs>

  <rect width="400" height="350" fill="url(#bg)" />
  <rect width="400" height="350" fill="url(#glow)" />
  <rect width="400" height="350" fill="url(#grid)" opacity="0.3" />
  <rect width="400" height="350" fill="url(#vignette)" />

  <g opacity="0.9">
    <path
      d="M110 175L200 104L290 175"
      stroke="#f5f5f4"
      stroke-opacity="0.72"
      stroke-width="4"
      stroke-linecap="round"
      stroke-linejoin="round"
    />
    <path
      d="M135 168V274H265V168"
      stroke="#f5f5f4"
      stroke-opacity="0.72"
      stroke-width="4"
      stroke-linecap="round"
      stroke-linejoin="round"
    />
    <path
      d="M178 274V235C178 226 185 219 194 219H206C215 219 222 226 222 235V274"
      stroke="#f5f5f4"
      stroke-opacity="0.68"
      stroke-width="4"
      stroke-linecap="round"
      stroke-linejoin="round"
    />
    <path
      d="M154 200H184V228H154V200Z"
      stroke="#f5f5f4"
      stroke-opacity="0.45"
      stroke-width="3"
      stroke-linejoin="round"
    />
    <path
      d="M216 200H246V228H216V200Z"
      stroke="#f5f5f4"
      stroke-opacity="0.45"
      stroke-width="3"
      stroke-linejoin="round"
    />
  </g>
</svg>
