<svg width="400" height="350" viewBox="0 0 400 350" fill="none" xmlns="http://www.w3.org/2000/svg">
  <!-- Background gradient -->
  <defs>
    <linearGradient id="bg1" x1="0%" y1="0%" x2="100%" y2="100%">
      <stop offset="0%" style="stop-color:#e0f2fe;stop-opacity:1" />
      <stop offset="100%" style="stop-color:#b3e5fc;stop-opacity:1" />
    </linearGradient>
    <linearGradient id="house1" x1="0%" y1="0%" x2="0%" y2="100%">
      <stop offset="0%" style="stop-color:#f5f5f5;stop-opacity:1" />
      <stop offset="100%" style="stop-color:#e0e0e0;stop-opacity:1" />
    </linearGradient>
    <linearGradient id="roof1" x1="0%" y1="0%" x2="0%" y2="100%">
      <stop offset="0%" style="stop-color:#8d6e63;stop-opacity:1" />
      <stop offset="100%" style="stop-color:#5d4037;stop-opacity:1" />
    </linearGradient>
  </defs>
  
  <!-- Sky background -->
  <rect width="400" height="350" fill="url(#bg1)"/>
  
  <!-- Ground -->
  <rect x="0" y="280" width="400" height="70" fill="#4caf50"/>
  
  <!-- House body -->
  <rect x="120" y="180" width="160" height="120" fill="url(#house1)" stroke="#bdbdbd" stroke-width="2"/>
  
  <!-- Roof -->
  <polygon points="100,180 200,120 300,180" fill="url(#roof1)" stroke="#424242" stroke-width="2"/>
  
  <!-- Door -->
  <rect x="180" y="240" width="40" height="60" fill="#795548" stroke="#5d4037" stroke-width="1"/>
  <circle cx="210" cy="270" r="2" fill="#ffeb3b"/>
  
  <!-- Windows -->
  <rect x="140" y="200" width="30" height="25" fill="#81d4fa" stroke="#0277bd" stroke-width="1"/>
  <rect x="230" y="200" width="30" height="25" fill="#81d4fa" stroke="#0277bd" stroke-width="1"/>
  <line x1="155" y1="200" x2="155" y2="225" stroke="#0277bd" stroke-width="1"/>
  <line x1="140" y1="212" x2="170" y2="212" stroke="#0277bd" stroke-width="1"/>
  <line x1="245" y1="200" x2="245" y2="225" stroke="#0277bd" stroke-width="1"/>
  <line x1="230" y1="212" x2="260" y2="212" stroke="#0277bd" stroke-width="1"/>
  
  <!-- Trees -->
  <circle cx="60" cy="200" r="25" fill="#4caf50"/>
  <rect x="55" y="225" width="10" height="35" fill="#8d6e63"/>
  
  <circle cx="340" cy="210" r="30" fill="#4caf50"/>
  <rect x="335" y="240" width="10" height="40" fill="#8d6e63"/>
  
  <!-- Clouds -->
  <circle cx="80" cy="60" r="15" fill="white" opacity="0.8"/>
  <circle cx="95" cy="55" r="20" fill="white" opacity="0.8"/>
  <circle cx="110" cy="60" r="15" fill="white" opacity="0.8"/>
  
  <circle cx="280" cy="40" r="18" fill="white" opacity="0.8"/>
  <circle cx="300" cy="35" r="25" fill="white" opacity="0.8"/>
  <circle cx="320" cy="40" r="18" fill="white" opacity="0.8"/>
</svg>